<?xml version="1.0" encoding="utf-8"?>
<!-- Generator: Adobe Illustrator 16.0.0, SVG Export Plug-In . SVG Version: 6.00 Build 0)  -->
<svg version="1.2" baseProfile="tiny" xmlns="http://www.w3.org/2000/svg" xmlns:xlink="http://www.w3.org/1999/xlink" x="0px"
	 y="0px" width="1531.328px" height="123.179px" viewBox="0 0 1531.328 123.179" xml:space="preserve">
<g id="Layer_1" display="none">
	<polygon display="inline" points="1541.264,-57.052 1541.264,-13.07 -4.736,-66.142 	"/>
	<polyline display="inline" points="-4.736,-66.142 1541.264,28.805 1541.264,183.858 594.341,183.858 -4.736,-66.142 	"/>
	<polyline display="inline" points="-4.736,-66.142 412.83,183.858 102.991,183.858 -4.736,-66.142 	"/>
</g>
<g id="Layer_2">
	<g>
		<path fill="#FFFFFF" d="M0,61.343c0-8.5,3.009-15.76,9.029-21.779s13.279-9.029,21.779-9.029h30.918
			c0,8.537-3.019,15.807-9.057,21.807c-6.038,6.002-13.325,9.002-21.861,9.002c8.537,0,15.823,3.02,21.861,9.057
			c6.038,6.038,9.057,13.307,9.057,21.807H30.808c0,8.501-3.01,15.76-9.029,21.779c-6.02,6.02-13.28,9.029-21.779,9.029
			c0-10.252,0-20.521,0-30.809S0,71.631,0,61.343z"/>
		<path fill="#FFFFFF" d="M83.263,61.671V30.808c8.5,0,15.76,3.02,21.779,9.057c6.019,6.038,9.029,13.307,9.029,21.807V30.808
			c8.537,0,15.823,3.02,21.861,9.057c6.038,6.038,9.057,13.307,9.057,21.807v30.863h-30.918c-8.5,0-15.76-3.018-21.779-9.057
			C86.272,77.44,83.263,70.172,83.263,61.671z"/>
		<path fill="#FFFFFF" d="M197.334,61.945c8.537,0,15.823,3.009,21.861,9.028c6.038,6.02,9.057,13.28,9.057,21.779h-30.918
			c-8.5,0-15.76-3.01-21.779-9.028c-6.02-6.02-9.029-13.279-9.029-21.779V31.027c0-8.5,3.009-15.761,9.029-21.779
			c6.02-6.02,13.279-9.029,21.779-9.029V61.945z"/>
		<path fill="#FFFFFF" d="M271.952,61.945c8.537,0,15.823,3.009,21.861,9.028c6.038,6.02,9.057,13.28,9.057,21.779h-30.918
			c-8.5,0-15.76-3.01-21.779-9.028c-6.02-6.02-9.029-13.279-9.029-21.779V31.027c0-8.5,3.009-15.761,9.029-21.779
			c6.02-6.02,13.279-9.029,21.779-9.029V61.945z"/>
		<path fill="#FFFFFF" d="M396.288,61.343c8.537,0,15.823,3.02,21.861,9.057c6.038,6.038,9.057,13.307,9.057,21.807
			c0,8.464-3.019,15.705-9.057,21.725c-6.038,6.02-13.325,9.029-21.861,9.029h-30.808c0-8.501,3.009-15.752,9.029-21.752
			c6.02-6.001,13.279-9.002,21.779-9.002c-8.5,0-15.76-3.01-21.779-9.029s-9.029-13.297-9.029-21.834
			c0-8.5,3.009-15.769,9.029-21.807c6.02-6.037,13.279-9.057,21.779-9.057c8.537,0,15.823,3.02,21.861,9.057
			c6.038,6.038,9.057,13.307,9.057,21.807H396.288z"/>
		<path fill="#FFFFFF" d="M510.469,61.89h-30.918c8.537,0,15.823,3.01,21.861,9.029c6.038,6.02,9.057,13.298,9.057,21.834h-30.918
			c-8.5,0-15.76-3.018-21.779-9.056s-9.029-13.307-9.029-21.808V31.027c0-8.5,3.009-15.769,9.029-21.808
			c6.02-6.037,13.279-9.056,21.779-9.056v30.863c8.537,0,15.823,3.019,21.861,9.056C507.45,46.122,510.469,53.391,510.469,61.89z"/>
		<path fill="#FFFFFF" d="M532.006,61.671c0-8.5,3.009-15.769,9.029-21.807c6.02-6.037,13.279-9.057,21.779-9.057
			c8.537,0,15.823,3.02,21.861,9.057c6.038,6.038,9.057,13.307,9.057,21.807v30.863c-8.537,0-15.824-3.018-21.861-9.057
			c-6.038-6.037-9.057-13.306-9.057-21.807v30.863c-8.5,0-15.76-3.018-21.779-9.057C535.015,77.44,532.006,70.172,532.006,61.671z"
			/>
		<path fill="#FFFFFF" d="M646.077,30.808h30.918c0,8.537-3.019,15.815-9.057,21.835c-6.038,6.019-13.325,9.028-21.861,9.028
			c8.537,0,15.823,3.01,21.861,9.029c6.038,6.02,9.057,13.279,9.057,21.779h-30.918c-8.5,0-15.76-3.01-21.779-9.029
			c-6.02-6.019-9.029-13.278-9.029-21.779c0-8.5,3.009-15.769,9.029-21.807C630.317,33.827,637.577,30.808,646.077,30.808z"/>
		<path fill="#FFFFFF" d="M730.708,61.89c8.208,0.402,15.186,3.576,20.931,9.522s8.619,13.061,8.619,21.341H729.34V61.945
			c0,8.5-3.01,15.76-9.029,21.779c-6.02,6.019-13.28,9.028-21.779,9.028c0-10.251,0-20.529,0-30.836c0-10.306,0-20.603,0-30.89
			c0-8.5,3.009-15.761,9.029-21.779c6.02-6.02,13.279-9.029,21.779-9.029v30.809v0.109h30.918c0,8.317-2.873,15.44-8.619,21.368
			C745.894,58.434,738.917,61.562,730.708,61.89z"/>
		<path fill="#FFFFFF" d="M853.622,30.862V0c8.536,0,15.823,3.019,21.861,9.056c6.037,6.039,9.057,13.308,9.057,21.807v30.863
			c0,8.501-3.02,15.77-9.057,21.807c-6.038,6.039-13.325,9.057-21.861,9.057c-8.501,0-15.761-3.018-21.779-9.057
			c-6.02-6.037-9.029-13.306-9.029-21.807c0-8.499,3.01-15.769,9.029-21.807C837.861,33.882,845.121,30.862,853.622,30.862z"/>
		<path fill="#FFFFFF" d="M903.012,92.37V61.507c0-8.5,3.01-15.76,9.029-21.779c6.019-6.02,13.278-9.029,21.779-9.029
			c8.536,0,15.823,3.01,21.861,9.029c6.037,6.02,9.057,13.279,9.057,21.779c0,8.537-3.02,15.814-9.057,21.834
			c-6.038,6.02-13.325,9.029-21.861,9.029c8.536,0,15.823,3.001,21.861,9.002c6.037,6.001,9.057,13.271,9.057,21.807H933.82
			c-8.501,0-15.761-3.02-21.779-9.057C906.021,108.084,903.012,100.834,903.012,92.37z"/>
		<path fill="#FFFFFF" d="M983.156,61.726v-0.055V30.808c8.5,0,15.76,3.02,21.779,9.057c6.02,6.038,9.029,13.307,9.029,21.807v0.055
			c0-8.536,3.018-15.823,9.056-21.861c6.038-6.037,13.325-9.057,21.862-9.057v30.918c0,8.501-3.02,15.761-9.057,21.779
			c-6.038,6.02-13.325,9.029-21.861,9.029c-8.501,0-15.761-3.01-21.779-9.029C986.166,77.486,983.156,70.227,983.156,61.726z"/>
		<path fill="#FFFFFF" d="M1066.419,92.37V61.507c0-8.5,3.01-15.76,9.029-21.779c6.019-6.02,13.278-9.029,21.779-9.029
			c8.536,0,15.823,3.01,21.861,9.029c6.037,6.02,9.057,13.279,9.057,21.779c0,8.537-3.02,15.814-9.057,21.834
			c-6.038,6.02-13.325,9.029-21.861,9.029c8.536,0,15.823,3.001,21.861,9.002c6.037,6.001,9.057,13.271,9.057,21.807h-30.918
			c-8.501,0-15.761-3.02-21.779-9.057C1069.429,108.084,1066.419,100.834,1066.419,92.37z"/>
		<path fill="#FFFFFF" d="M1177.372,61.945c8.536,0,15.823,3.009,21.861,9.028c6.037,6.02,9.057,13.28,9.057,21.779h-30.918
			c-8.501,0-15.761-3.01-21.779-9.028c-6.02-6.02-9.029-13.279-9.029-21.779V31.027c0-8.5,3.01-15.761,9.029-21.779
			c6.019-6.02,13.278-9.029,21.779-9.029V61.945z"/>
		<path fill="#FFFFFF" d="M1253.959,30.644c8.536,0,15.842,3.037,21.916,9.111s9.111,13.38,9.111,21.916
			c0,8.573-3.037,15.889-9.111,21.943c-6.074,6.057-13.38,9.084-21.916,9.084c-8.573,0-15.889-3.027-21.943-9.084
			c-6.057-6.055-9.084-13.37-9.084-21.943c0-8.536,3.027-15.842,9.084-21.916C1238.07,33.681,1245.386,30.644,1253.959,30.644z"/>
		<path fill="#FFFFFF" d="M1306.194,123.069c0-10.288,0-20.567,0-30.836s0-20.529,0-30.781c0-8.5,3.01-15.769,9.029-21.807
			c6.019-6.037,13.278-9.057,21.779-9.057c8.536,0,15.823,3.02,21.861,9.057c6.037,6.038,9.057,13.307,9.057,21.807
			c0,8.501-3.02,15.77-9.057,21.807c-6.038,6.038-13.325,9.057-21.861,9.057c0,8.464-3.01,15.705-9.029,21.725
			S1314.694,123.069,1306.194,123.069z"/>
		<path fill="#FFFFFF" d="M1389.458,92.37V61.507c0-8.5,3.01-15.76,9.029-21.779c6.019-6.02,13.278-9.029,21.779-9.029
			c8.536,0,15.823,3.01,21.861,9.029c6.037,6.02,9.057,13.279,9.057,21.779c0,8.537-3.02,15.814-9.057,21.834
			c-6.038,6.02-13.325,9.029-21.861,9.029c8.536,0,15.823,3.001,21.861,9.002c6.037,6.001,9.057,13.271,9.057,21.807h-30.918
			c-8.501,0-15.761-3.02-21.779-9.057C1392.468,108.084,1389.458,100.834,1389.458,92.37z"/>
		<path fill="#FFFFFF" d="M1500.41,61.397v61.617c-8.501,0-15.761-3.01-21.779-9.029c-6.02-6.02-9.029-13.261-9.029-21.725V61.397
			c0-8.5,3.01-15.769,9.029-21.807c6.019-6.037,13.278-9.057,21.779-9.057h30.918c0,8.537-3.02,15.814-9.057,21.834
			C1516.233,58.388,1508.946,61.397,1500.41,61.397z"/>
	</g>
</g>
</svg>
