<?xml version="1.0" encoding="utf-8"?>
<!-- Generator: Adobe Illustrator 16.0.0, SVG Export Plug-In . SVG Version: 6.00 Build 0)  -->
<!DOCTYPE svg PUBLIC "-//W3C//DTD SVG 1.1//EN" "http://www.w3.org/Graphics/SVG/1.1/DTD/svg11.dtd">
<svg version="1.1" id="Layer_1" xmlns="http://www.w3.org/2000/svg" xmlns:xlink="http://www.w3.org/1999/xlink" x="0px" y="0px"
	 width="26px" height="17px" viewBox="-1 3 26 17" enable-background="new -1 3 26 17" xml:space="preserve">
<g>
	<path fill="#FFFFFF" d="M15,19.5c-0.143,0-0.283-0.061-0.383-0.178l-0.645-0.766c-0.086-0.103-0.127-0.234-0.115-0.367
		s0.076-0.255,0.179-0.34l6.459-5.35H0c-0.276,0-0.5-0.224-0.5-0.5v-1c0-0.276,0.224-0.5,0.5-0.5h20.496l-6.46-5.351
		c-0.103-0.085-0.167-0.208-0.179-0.341s0.03-0.265,0.116-0.367l0.645-0.764C14.717,3.561,14.858,3.5,15,3.5
		c0.113,0,0.227,0.038,0.319,0.115l9,7.479c0.114,0.095,0.181,0.236,0.181,0.384c0,0.148-0.065,0.289-0.18,0.384l-9,7.521
		C15.228,19.462,15.113,19.5,15,19.5z"/>
	<path fill="#FFFFFF" d="M15,4l9,7.479L15,19l-0.645-0.766L21.883,12H0v-1h21.884l-7.528-6.236L15,4 M15.001,3
		c-0.285,0-0.567,0.121-0.766,0.355L13.591,4.12c-0.172,0.204-0.255,0.468-0.231,0.733c0.023,0.266,0.152,0.511,0.358,0.681
		L19.109,10H0c-0.552,0-1,0.448-1,1v1c0,0.553,0.448,1,1,1h19.107l-5.39,4.464c-0.205,0.171-0.334,0.415-0.358,0.681
		c-0.023,0.266,0.06,0.53,0.231,0.733l0.645,0.766C14.433,19.879,14.716,20,15.001,20c0.226,0,0.453-0.076,0.641-0.232l9-7.521
		C24.869,12.056,25,11.774,25,11.478s-0.133-0.578-0.361-0.768l-9-7.479C15.452,3.076,15.226,3,15.001,3L15.001,3z"/>
</g>
</svg>
