<?xml version="1.0" encoding="utf-8"?>
<!-- Generator: Adobe Illustrator 16.0.0, SVG Export Plug-In . SVG Version: 6.00 Build 0)  -->
<!DOCTYPE svg PUBLIC "-//W3C//DTD SVG 1.1//EN" "http://www.w3.org/Graphics/SVG/1.1/DTD/svg11.dtd">
<svg version="1.1" id="Layer_1" xmlns="http://www.w3.org/2000/svg" xmlns:xlink="http://www.w3.org/1999/xlink" x="0px" y="0px"
	 width="30px" height="30px" viewBox="0 0 30 30" enable-background="new 0 0 30 30" xml:space="preserve">
<path fill="#FFFFFF" d="M15,0.371c-8.288,0-15,6.716-15,15C0,22,4.297,27.621,10.256,29.603c0.75,0.142,1.025-0.323,1.025-0.722
	c0-0.355-0.013-1.3-0.019-2.55C7.09,27.236,6.21,24.318,6.21,24.318c-0.683-1.73-1.669-2.193-1.669-2.193
	c-1.358-0.93,0.105-0.911,0.105-0.911c1.506,0.104,2.297,1.545,2.297,1.545c1.337,2.294,3.511,1.632,4.369,1.247
	c0.135-0.97,0.521-1.631,0.95-2.006c-3.332-0.375-6.833-1.665-6.833-7.413c0-1.637,0.581-2.975,1.543-4.025
	c-0.168-0.379-0.675-1.904,0.131-3.97c0,0,1.256-0.402,4.125,1.538c1.2-0.333,2.475-0.499,3.75-0.506
	c1.275,0.008,2.549,0.173,3.75,0.506c2.85-1.94,4.105-1.538,4.105-1.538c0.807,2.066,0.301,3.591,0.15,3.97
	c0.956,1.05,1.537,2.388,1.537,4.025c0,5.762-3.506,7.032-6.844,7.4c0.525,0.45,1.013,1.37,1.013,2.775
	c0,2.007-0.019,3.62-0.019,4.107c0,0.394,0.262,0.862,1.031,0.712C25.706,27.615,30,21.99,30,15.371C30,7.087,23.283,0.371,15,0.371
	"/>
</svg>
